<svg xmlns="http://www.w3.org/2000/svg" width="85.639" height="82.4" viewBox="0 0 85.639 82.4"><defs><style>.a{fill:#002061;stroke:#002061;stroke-width:0.6px;}</style></defs><g transform="translate(-640.837 -141.278)"><path class="a" d="M724.823,164.657H642.489a1.353,1.353,0,0,1,0-2.705h82.334a1.353,1.353,0,1,1,0,2.705Z" transform="translate(0 8.022)"/><path class="a" d="M724.823,160.776H642.489a1.352,1.352,0,1,1,0-2.7h82.334a1.352,1.352,0,1,1,0,2.7Z" transform="translate(0 6.494)"/><path class="a" d="M698.344,176.912h-7.512a1.351,1.351,0,0,1-1.352-1.352v-7.512a1.351,1.351,0,0,1,1.352-1.352h7.512a1.351,1.351,0,0,1,1.352,1.352v7.512A1.351,1.351,0,0,1,698.344,176.912Zm-6.16-2.7h4.808V169.4h-4.808Z" transform="translate(19.033 9.889)"/><path class="a" d="M687.78,176.912h-7.512a1.353,1.353,0,0,1-1.353-1.352v-7.512a1.353,1.353,0,0,1,1.353-1.352h7.512a1.351,1.351,0,0,1,1.352,1.352v7.512A1.351,1.351,0,0,1,687.78,176.912Zm-6.16-2.7h4.808V169.4H681.62Z" transform="translate(14.874 9.889)"/><path class="a" d="M677.215,176.912H669.7a1.351,1.351,0,0,1-1.352-1.352v-7.512A1.351,1.351,0,0,1,669.7,166.7h7.512a1.351,1.351,0,0,1,1.352,1.352v7.512A1.352,1.352,0,0,1,677.215,176.912Zm-6.16-2.7h4.808V169.4h-4.808Z" transform="translate(10.715 9.889)"/><path class="a" d="M666.65,176.912h-7.512a1.351,1.351,0,0,1-1.352-1.352v-7.512a1.351,1.351,0,0,1,1.352-1.352h7.512A1.351,1.351,0,0,1,668,168.048v7.512A1.351,1.351,0,0,1,666.65,176.912Zm-6.159-2.7H665.3V169.4h-4.807Z" transform="translate(6.555 9.889)"/><path class="a" d="M698.344,187.263h-7.512a1.353,1.353,0,0,1-1.352-1.353V178.4a1.353,1.353,0,0,1,1.352-1.353h7.512A1.353,1.353,0,0,1,699.7,178.4v7.512A1.353,1.353,0,0,1,698.344,187.263Zm-6.16-2.705h4.808v-4.808h-4.808Z" transform="translate(19.033 13.964)"/><path class="a" d="M687.78,187.263h-7.512a1.354,1.354,0,0,1-1.353-1.353V178.4a1.354,1.354,0,0,1,1.353-1.353h7.512a1.353,1.353,0,0,1,1.352,1.353v7.512A1.353,1.353,0,0,1,687.78,187.263Zm-6.16-2.705h4.808v-4.808H681.62Z" transform="translate(14.874 13.964)"/><path class="a" d="M677.215,187.263H669.7a1.353,1.353,0,0,1-1.352-1.353V178.4a1.353,1.353,0,0,1,1.352-1.353h7.512a1.353,1.353,0,0,1,1.352,1.353v7.512A1.353,1.353,0,0,1,677.215,187.263Zm-6.16-2.705h4.808v-4.808h-4.808Z" transform="translate(10.715 13.964)"/><path class="a" d="M666.65,187.263h-7.512a1.353,1.353,0,0,1-1.352-1.353V178.4a1.353,1.353,0,0,1,1.352-1.353h7.512A1.353,1.353,0,0,1,668,178.4v7.512A1.353,1.353,0,0,1,666.65,187.263Zm-6.159-2.705H665.3v-4.808h-4.807Z" transform="translate(6.555 13.964)"/><path class="a" d="M698.344,197.611h-7.512a1.353,1.353,0,0,1-1.352-1.353v-7.512a1.351,1.351,0,0,1,1.352-1.352h7.512a1.351,1.351,0,0,1,1.352,1.352v7.512A1.353,1.353,0,0,1,698.344,197.611Zm-6.16-2.705h4.808V190.1h-4.808Z" transform="translate(19.033 18.039)"/><path class="a" d="M687.78,197.611h-7.512a1.354,1.354,0,0,1-1.353-1.353v-7.512a1.353,1.353,0,0,1,1.353-1.352h7.512a1.351,1.351,0,0,1,1.352,1.352v7.512A1.353,1.353,0,0,1,687.78,197.611Zm-6.16-2.705h4.808V190.1H681.62Z" transform="translate(14.874 18.039)"/><path class="a" d="M677.215,197.611H669.7a1.353,1.353,0,0,1-1.352-1.353v-7.512a1.351,1.351,0,0,1,1.352-1.352h7.512a1.352,1.352,0,0,1,1.352,1.352v7.512A1.353,1.353,0,0,1,677.215,197.611Zm-6.16-2.705h4.808V190.1h-4.808Z" transform="translate(10.715 18.039)"/><path class="a" d="M666.65,197.611h-7.512a1.353,1.353,0,0,1-1.352-1.353v-7.512a1.351,1.351,0,0,1,1.352-1.352h7.512A1.351,1.351,0,0,1,668,188.746v7.512A1.353,1.353,0,0,1,666.65,197.611Zm-6.159-2.705H665.3V190.1h-4.807Z" transform="translate(6.555 18.039)"/><path class="a" d="M656.086,187.263h-7.512a1.354,1.354,0,0,1-1.353-1.353V178.4a1.354,1.354,0,0,1,1.353-1.353h7.512a1.353,1.353,0,0,1,1.352,1.353v7.512A1.353,1.353,0,0,1,656.086,187.263Zm-6.16-2.705h4.808v-4.808h-4.808Z" transform="translate(2.395 13.964)"/><path class="a" d="M656.086,197.611h-7.512a1.354,1.354,0,0,1-1.353-1.353v-7.512a1.353,1.353,0,0,1,1.353-1.352h7.512a1.351,1.351,0,0,1,1.352,1.352v7.512A1.353,1.353,0,0,1,656.086,197.611Zm-6.16-2.705h4.808V190.1h-4.808Z" transform="translate(2.395 18.039)"/><path class="a" d="M654.645,160.659a4.362,4.362,0,0,1-4.357-4.358V145.935a4.357,4.357,0,1,1,8.714,0V156.3A4.362,4.362,0,0,1,654.645,160.659Zm0-16.378a1.655,1.655,0,0,0-1.653,1.653V156.3a1.653,1.653,0,1,0,3.306,0V145.935A1.655,1.655,0,0,0,654.645,144.282Z" transform="translate(3.603)"/><path class="a" d="M673.247,160.659a4.362,4.362,0,0,1-4.357-4.358V145.935a4.357,4.357,0,1,1,8.714,0V156.3A4.362,4.362,0,0,1,673.247,160.659Zm0-16.378a1.655,1.655,0,0,0-1.653,1.653V156.3a1.653,1.653,0,0,0,3.306,0V145.935A1.655,1.655,0,0,0,673.247,144.282Z" transform="translate(10.927)"/><path class="a" d="M691.849,160.659a4.362,4.362,0,0,1-4.357-4.358V145.935a4.357,4.357,0,0,1,8.714,0V156.3A4.362,4.362,0,0,1,691.849,160.659Zm0-16.378a1.655,1.655,0,0,0-1.653,1.653V156.3a1.653,1.653,0,1,0,3.306,0V145.935A1.655,1.655,0,0,0,691.849,144.282Z" transform="translate(18.251)"/><path class="a" d="M717.612,220.572H649.7a8.574,8.574,0,0,1-8.563-8.564V157.269a8.572,8.572,0,0,1,8.563-8.563h5.543a1.351,1.351,0,0,1,1.352,1.352v3.437a1.653,1.653,0,1,0,3.306,0v-3.437a1.351,1.351,0,0,1,1.352-1.352h19.916a1.351,1.351,0,0,1,1.352,1.352v3.437a1.653,1.653,0,0,0,3.306,0v-3.437a1.351,1.351,0,0,1,1.352-1.352h19.916a1.351,1.351,0,0,1,1.352,1.352v3.437a1.653,1.653,0,1,0,3.306,0v-3.437a1.351,1.351,0,0,1,1.352-1.352h4.507a8.574,8.574,0,0,1,8.564,8.563v54.738A8.575,8.575,0,0,1,717.612,220.572ZM649.7,151.41a5.866,5.866,0,0,0-5.859,5.859v54.738a5.866,5.866,0,0,0,5.859,5.859h67.912a5.866,5.866,0,0,0,5.859-5.859V157.269a5.866,5.866,0,0,0-5.859-5.859h-3.155v2.085a4.357,4.357,0,1,1-8.714,0V151.41H688.53v2.085a4.357,4.357,0,1,1-8.714,0V151.41H662.6v2.085a4.357,4.357,0,1,1-8.714,0V151.41Z" transform="translate(0 2.806)"/></g></svg>