<svg xmlns="http://www.w3.org/2000/svg" width="94.907" height="78.925" viewBox="0 0 94.907 78.925"><defs><style>.a{fill:#002061;}</style></defs><g transform="translate(-635.756 -176.965)"><path class="a" d="M729.748,207.578a7.556,7.556,0,0,0-1.921-2.831V188.456c-.649-6.348-5.794-11.491-12.142-11.491H647.249a11.491,11.491,0,0,0-11.493,11.491V244.4a11.493,11.493,0,0,0,11.493,11.493h68.437c6.348,0,11.493-5.147,12.142-11.493V228.106a7.556,7.556,0,0,0,1.921-2.831c.92-2.366.918-5.283.915-8.371v-.955C730.666,212.861,730.668,209.944,729.748,207.578Zm-7.737.846c1.981,0,2.23.642,2.451,1.211.533,1.371.532,3.769.53,6.311v.964c0,2.54,0,4.938-.53,6.311-.22.567-.469,1.209-2.451,1.209h-27.34a8,8,0,1,1,0-16.005Zm-6.326,41.795H647.249a5.829,5.829,0,0,1-5.821-5.821V188.456a5.827,5.827,0,0,1,5.821-5.819h68.437a5.827,5.827,0,0,1,5.821,5.819v14.3H694.671a13.674,13.674,0,0,0,0,27.348h26.835v14.3A5.829,5.829,0,0,1,715.685,250.219Z"/><path class="a" d="M669.037,201.912a3.662,3.662,0,1,0,3.662-3.663A3.663,3.663,0,0,0,669.037,201.912Z" transform="translate(22.696 14.514)"/></g></svg>