<svg xmlns="http://www.w3.org/2000/svg" xmlns:xlink="http://www.w3.org/1999/xlink" version="1.1" style="enable-background:new 0 0 373.232 373.232;" xml:space="preserve" width="373.232" height="373.232"><rect id="backgroundrect" width="100%" height="100%" x="0" y="0" fill="none" stroke="none"/>


















<g class="currentLayer" style=""><title>Layer 1</title><g id="svg_1" class="" fill="#ffffff" fill-opacity="1">
	<g id="svg_2" fill="#ffffff" fill-opacity="1">
		<path d="M187.466,0c-0.1,0.1-0.3,0.1-0.6,0.1c-101.2,0-183.5,82.3-183.5,183.5c0,41.3,14.1,81.4,39.9,113.7l-26.7,62    c-2.2,5.1,0.2,11,5.2,13.1c1.8,0.8,3.8,1,5.7,0.7l97.9-17.2c19.6,7.1,40.2,10.7,61,10.6c101.2,0,183.5-82.3,183.5-183.5    C370.066,82.1,288.366,0.1,187.466,0z M186.466,346.6c-19.3,0-38.4-3.5-56.5-10.3c-1.7-0.7-3.5-0.8-5.3-0.5l-82.4,14.4l21.8-50.7    c1.5-3.5,0.9-7.6-1.6-10.5c-11.8-13.7-21.2-29.3-27.8-46.2c-7.4-18.9-11.2-39-11.2-59.3c0-90.2,73.4-163.5,163.5-163.5    c89.9-0.2,162.9,72.5,163,162.4c0,0.2,0,0.4,0,0.6C349.966,273.3,276.566,346.6,186.466,346.6z" id="svg_3" fill="#ffffff" fill-opacity="1"/>
	</g>
</g><g id="svg_4" class="" fill="#ffffff" fill-opacity="1">
	<g id="svg_5" fill="#ffffff" fill-opacity="1">
		<path d="M177.92525928354263,146.7 h-54 c-5.5,0 -10,4.5 -10,10 s4.5,10 10,10 h54 c5.5,0 10,-4.5 10,-10 S183.42525928354263,146.7 177.92525928354263,146.7 z" id="svg_6" fill="#ffffff" fill-opacity="1"/>
	</g>
</g><g id="svg_7" class="selected" fill="#ffffff" fill-opacity="1">
	<g id="svg_8" fill="#ffffff" fill-opacity="1">
		<path d="M248.666,196.7h-124c-5.5,0-10,4.5-10,10s4.5,10,10,10h124c5.5,0,10-4.5,10-10S254.166,196.7,248.666,196.7z" id="svg_9" fill="#ffffff" fill-opacity="1"/>
	</g>
</g><g id="svg_10">
</g><g id="svg_11">
</g><g id="svg_12">
</g><g id="svg_13">
</g><g id="svg_14">
</g><g id="svg_15">
</g><g id="svg_16">
</g><g id="svg_17">
</g><g id="svg_18">
</g><g id="svg_19">
</g><g id="svg_20">
</g><g id="svg_21">
</g><g id="svg_22">
</g><g id="svg_23">
</g><g id="svg_24">
</g></g></svg>