<?xml version="1.0" encoding="UTF-8" ?>
<!DOCTYPE svg PUBLIC "-//W3C//DTD SVG 1.1//EN" "http://www.w3.org/Graphics/SVG/1.1/DTD/svg11.dtd">
<svg width="128pt" height="128pt" viewBox="0 0 128 128" version="1.1" xmlns="http://www.w3.org/2000/svg">
<g id="#002c5fff">
<path fill="#002c5f" opacity="1.00" d=" M 51.45 11.60 C 57.85 7.62 66.19 7.07 73.15 9.88 C 81.99 13.29 88.06 22.53 87.85 31.98 C 87.86 42.65 87.87 53.32 87.84 64.00 C 87.98 71.69 84.06 79.33 77.70 83.66 C 70.29 88.84 59.88 89.29 52.07 84.75 C 44.58 80.69 40.02 72.28 40.08 63.84 C 36.09 63.86 32.11 63.86 28.12 63.85 C 29.58 79.06 41.73 92.39 56.71 95.31 C 70.27 98.40 85.17 92.40 93.19 81.12 C 98.00 74.81 99.90 66.88 100.33 59.09 C 100.76 55.20 107.15 55.22 107.73 59.03 C 108.29 69.48 104.38 79.96 97.75 87.97 C 90.40 96.94 79.38 102.71 67.84 103.77 C 67.86 106.56 67.86 109.36 67.84 112.16 C 72.20 112.24 76.56 111.93 80.90 112.28 C 83.83 112.65 84.89 116.90 82.72 118.77 C 81.54 120.14 79.56 119.75 77.97 119.88 C 67.95 119.79 57.93 119.95 47.91 119.81 C 43.89 120.13 42.71 113.86 46.37 112.44 C 50.92 111.76 55.57 112.31 60.16 112.16 C 60.14 109.36 60.14 106.56 60.17 103.76 C 47.86 102.59 36.11 96.13 28.81 86.12 C 23.20 78.64 20.01 69.29 20.19 59.92 C 20.03 57.87 21.94 56.02 23.99 56.19 C 29.37 56.04 34.77 56.19 40.16 56.16 C 40.14 48.09 40.12 40.02 40.16 31.96 C 39.99 23.82 44.42 15.74 51.45 11.60 M 57.34 17.30 C 51.59 19.68 47.90 25.77 47.88 31.92 C 47.81 42.27 47.89 52.62 47.84 62.98 C 47.70 68.24 49.86 73.69 54.19 76.85 C 60.02 81.34 68.80 81.13 74.41 76.37 C 78.22 73.35 79.84 68.51 80.33 63.84 C 73.24 63.77 66.14 64.06 59.06 63.72 C 55.22 63.19 55.21 56.81 59.06 56.28 C 66.08 55.94 73.13 56.24 80.16 56.16 C 80.12 48.43 80.16 40.70 80.15 32.97 C 80.20 28.89 79.02 24.73 76.37 21.58 C 71.90 16.15 63.71 14.34 57.34 17.30 Z" />
</g>
</svg>
