<?xml version="1.0" encoding="utf-8"?>
<!-- Generator: Adobe Illustrator 21.1.0, SVG Export Plug-In . SVG Version: 6.00 Build 0)  -->
<svg version="1.1" id="Layer_1" xmlns="http://www.w3.org/2000/svg" xmlns:xlink="http://www.w3.org/1999/xlink" x="0px" y="0px"
	 viewBox="0 0 128 128" style="enable-background:new 0 0 128 128;" xml:space="preserve">
<style type="text/css">
	.st0{fill:#FFFFFF;}
</style>
<g id="_x23_ffffffff">
	<path class="st0" d="M35.1,27.2c2.1-1,4.8-0.4,6.3,1.4c7.5,7.5,15.1,15,22.6,22.6c7.7-7.7,15.4-15.4,23.1-23c2.2-2.2,6.3-1.7,8,0.9
		c1.6,2.2,1.1,5.4-1,7.1c-8.9,8.8-17.7,17.7-26.6,26.6c-1.9,1.8-5.2,1.8-7,0c-9-9-18-18-27-27.1C31,33.1,31.9,28.5,35.1,27.2z"/>
	<path class="st0" d="M33.1,66.1c1.7-2.6,6-2.8,8-0.5c7.6,7.6,15.2,15.2,22.8,22.8c7.6-7.6,15.2-15.2,22.8-22.8
		c2-2.4,6.4-2.2,8.1,0.4c1.7,2.1,1.3,5.3-0.6,7.1c-8.8,8.8-17.7,17.7-26.5,26.5c-1.9,2.1-5.5,2.1-7.4,0.1
		C51.4,91,42.6,82.1,33.7,73.3C31.8,71.5,31.4,68.2,33.1,66.1z"/>
</g>
</svg>
