<?xml version="1.0" encoding="utf-8"?>
<!-- Generator: Adobe Illustrator 21.1.0, SVG Export Plug-In . SVG Version: 6.00 Build 0)  -->
<svg version="1.1" id="Layer_1" xmlns="http://www.w3.org/2000/svg" xmlns:xlink="http://www.w3.org/1999/xlink" x="0px" y="0px"
	 viewBox="0 0 128 128" style="enable-background:new 0 0 128 128;" xml:space="preserve">
<style type="text/css">
	.st0{fill:none;}
	.st1{fill:#002C5F;}
</style>
<rect id="backgroundrect" class="st0" width="128" height="128"/>
<g>
	<title>Layer 1</title>
	<g id="svg_1" transform="translate(0,128) scale(0.10000000149011612,-0.10000000149011612) ">
		<path id="svg_2" class="st1" d="M92,1188c-7-7-12-19-12-28c0-8,72-87,160-175l160-160v-52v-52l-91-3c-114-4-118-8-102-104
			c33-191,165-324,366-368c24-6,27-11,27-46v-39l-71-3c-55-2-74-7-83-21c-8-12-8-22,0-35c10-15,31-17,194-17s184,2,194,18
			c8,12,8,22,0,35c-9,13-28,18-83,20l-71,3v39c0,41,1,42,70,55c19,4,61,21,93,38l58,30l122-121c67-67,129-122,138-122
			c8,0,20,5,27,12s12,19,12,27c0,9-54,70-120,136L960,375l35,49c47,66,76,149,78,220c2,46-2,61-15,70c-31,19-52-4-60-68
			s-50-166-80-192c-18-17-20-17-48,12l-30,29l20,53c18,46,20,77,20,250c0,229-8,268-71,331c-94,93-242,93-337,0
			c-42-42-72-109-72-163c0-29-7-24-133,102c-73,72-139,132-148,132C111,1200,99,1195,92,1188z M728,1093c62-46,67-62,70-224l3-149
			h-93h-92l-68,67l-68,67v68c0,100,27,153,95,184C615,1125,694,1118,728,1093z M709,495c-5-5-36-10-69-10c-63,0-95,16-134,69
			c-16,21-22,46-24,109l-4,82l121-120C682,543,716,502,709,495z M400,622c0-42,34-114,71-151c69-69,165-88,261-51l53,20l29-30l30-29
			l-60-28c-50-24-72-28-144-28s-94,4-145,28c-103,48-183,147-209,260l-6,27h60C391,640,400,637,400,622z M796,608c-10-50-19-51-61-8
			l-39,40h53h54L796,608z"/>
	</g>
</g>
</svg>
