<svg xmlns="http://www.w3.org/2000/svg" version="1.0" width="676.000000" height="672.000000" preserveAspectRatio="xMidYMid meet"><rect id="backgroundrect" width="100%" height="100%" x="0" y="0" fill="none" stroke="none"/>


<g class="currentLayer" style=""><title>Layer 1</title><g transform="translate(0,672) scale(0.10000000149011612,-0.10000000149011612) " fill="#ffffff" stroke="none" id="svg_1" class="selected" fill-opacity="1">
<path d="M3280 6145 c-707 -97 -1259 -620 -1402 -1327 -33 -161 -32 -463 1 -618 72 -339 198 -574 465 -864 195 -212 265 -320 334 -518 62 -175 64 -192 72 -698 6 -390 10 -474 24 -522 81 -279 301 -485 578 -542 246 -51 499 26 677 207 97 99 159 203 197 333 14 50 18 130 24 524 8 507 11 531 75 710 69 189 141 299 331 506 157 170 254 306 328 457 223 456 219 1002 -10 1460 -313 624 -1002 987 -1694 892z m495 -313 c533 -115 933 -514 1047 -1045 29 -135 31 -398 5 -529 -55 -275 -167 -479 -394 -720 -71 -75 -157 -176 -191 -223 -128 -181 -233 -432 -269 -647 l-17 -108 -456 0 -456 0 -17 108 c-34 200 -125 430 -239 602 -70 104 -106 148 -234 281 -209 219 -326 436 -381 707 -26 130 -24 393 5 529 87 403 341 737 701 922 145 74 279 115 476 145 69 10 332 -3 420 -22z m175 -3827 c0 -150 -5 -276 -11 -307 -50 -232 -279 -389 -510 -350 -184 32 -329 170 -368 350 -6 32 -11 156 -11 307 l0 255 450 0 450 0 0 -255z" id="svg_2" fill="#ffffff" fill-opacity="1"/>
<path d="M3390 5246 c-83 -24 -145 -60 -206 -121 -98 -98 -134 -195 -134 -362 l0 -103 150 0 150 0 0 90 c0 110 18 154 78 188 49 27 91 28 142 2 64 -32 96 -116 71 -183 -5 -13 -51 -66 -103 -118 -143 -144 -187 -255 -188 -471 l0 -108 149 0 149 0 4 118 c5 146 18 174 137 292 51 50 96 105 110 133 89 185 58 380 -84 523 -112 113 -280 160 -425 120z" id="svg_3" fill="#ffffff" fill-opacity="1"/>
<path d="M3350 3610 l0 -150 150 0 150 0 0 150 0 150 -150 0 -150 0 0 -150z" id="svg_4" fill="#ffffff" fill-opacity="1"/>
<path d="M1200 5605 l-105 -105 223 -223 222 -222 107 108 108 107 -220 220 c-121 121 -222 220 -225 220 -3 0 -52 -47 -110 -105z" id="svg_5" fill="#ffffff" fill-opacity="1"/>
<path d="M5465 5490 l-220 -220 108 -107 107 -108 222 222 223 223 -105 105 c-58 58 -107 105 -110 105 -3 0 -104 -99 -225 -220z" id="svg_6" fill="#ffffff" fill-opacity="1"/>
<path d="M940 4510 l0 -150 305 0 305 0 0 150 0 150 -305 0 -305 0 0 -150z" id="svg_7" fill="#ffffff" fill-opacity="1"/>
<path d="M5450 4510 l0 -150 305 0 305 0 0 150 0 150 -305 0 -305 0 0 -150z" id="svg_8" fill="#ffffff" fill-opacity="1"/>
<path d="M1317 3742 l-217 -217 108 -108 107 -107 220 220 220 220 -105 105 c-58 58 -107 105 -110 105 -3 0 -103 -98 -223 -218z" id="svg_9" fill="#ffffff" fill-opacity="1"/>
<path d="M5350 3855 l-105 -105 220 -220 220 -220 107 107 108 108 -217 217 c-120 120 -220 218 -223 218 -3 0 -52 -47 -110 -105z" id="svg_10" fill="#ffffff" fill-opacity="1"/>
</g></g></svg>