<?xml version="1.0" encoding="utf-8"?>
<!-- Generator: Adobe Illustrator 21.1.0, SVG Export Plug-In . SVG Version: 6.00 Build 0)  -->
<svg version="1.1" id="Layer_1" xmlns="http://www.w3.org/2000/svg" xmlns:xlink="http://www.w3.org/1999/xlink" x="0px" y="0px"
	 viewBox="0 0 512 511.9" style="enable-background:new 0 0 512 511.9;" xml:space="preserve">
<style type="text/css">
	.st0{fill:none;}
	.st1{fill:#FFFFFF;}
</style>
<rect id="backgroundrect" x="-94" y="-56" class="st0" width="676" height="672"/>
<g>
	<title>Layer 1</title>
	<g id="svg_1" transform="translate(0,672) scale(0.10000000149011612,-0.10000000149011612) ">
		<path id="svg_2" class="st1" d="M2340,6705c-707-97-1259-620-1402-1327c-33-161-32-463,1-618c72-339,198-574,465-864
			c195-212,265-320,334-518c62-175,64-192,72-698c6-390,10-474,24-522c81-279,301-485,578-542c246-51,499,26,677,207
			c97,99,159,203,197,333c14,50,18,130,24,524c8,507,11,531,75,710c69,189,141,299,331,506c157,170,254,306,328,457
			c223,456,219,1002-10,1460C3721,6437,3032,6800,2340,6705z M2835,6392c533-115,933-514,1047-1045c29-135,31-398,5-529
			c-55-275-167-479-394-720c-71-75-157-176-191-223c-128-181-233-432-269-647l-17-108h-456h-456l-17,108c-34,200-125,430-239,602
			c-70,104-106,148-234,281c-209,219-326,436-381,707c-26,130-24,393,5,529c87,403,341,737,701,922c145,74,279,115,476,145
			C2484,6424,2747,6411,2835,6392z M3010,2565c0-150-5-276-11-307c-50-232-279-389-510-350c-184,32-329,170-368,350
			c-6,32-11,156-11,307v255h450h450V2565z"/>
		<path id="svg_3" class="st1" d="M2450,5806c-83-24-145-60-206-121c-98-98-134-195-134-362v-103h150h150v90c0,110,18,154,78,188
			c49,27,91,28,142,2c64-32,96-116,71-183c-5-13-51-66-103-118c-143-144-187-255-188-471v-108h149h149l4,118c5,146,18,174,137,292
			c51,50,96,105,110,133c89,185,58,380-84,523C2763,5799,2595,5846,2450,5806z"/>
		<path id="svg_4" class="st1" d="M2410,4170v-150h150h150v150v150h-150h-150V4170z"/>
		<path id="svg_5" class="st1" d="M260,6165l-105-105l223-223l222-222l107,108l108,107l-220,220c-121,121-222,220-225,220
			S318,6223,260,6165z"/>
		<path id="svg_6" class="st1" d="M4525,6050l-220-220l108-107l107-108l222,222l223,223l-105,105c-58,58-107,105-110,105
			S4646,6171,4525,6050z"/>
		<path id="svg_7" class="st1" d="M0,5070v-150h305h305v150v150H305H0V5070z"/>
		<path id="svg_8" class="st1" d="M4510,5070v-150h305h305v150v150h-305h-305V5070z"/>
		<path id="svg_9" class="st1" d="M377,4302l-217-217l108-108l107-107l220,220l220,220l-105,105c-58,58-107,105-110,105
			S497,4422,377,4302z"/>
		<path id="svg_10" class="st1" d="M4410,4415l-105-105l220-220l220-220l107,107l108,108l-217,217c-120,120-220,218-223,218
			S4468,4473,4410,4415z"/>
	</g>
</g>
</svg>
