<?xml version="1.0" encoding="UTF-8" ?>
<!DOCTYPE svg PUBLIC "-//W3C//DTD SVG 1.1//EN" "http://www.w3.org/Graphics/SVG/1.1/DTD/svg11.dtd">
<svg width="128pt" height="128pt" viewBox="0 0 128 128" version="1.1" xmlns="http://www.w3.org/2000/svg">
<g id="#002c5fff">
<path fill="#002c5f" opacity="1.00" d=" M 21.27 14.88 C 22.93 13.70 24.69 14.99 26.22 15.71 C 51.87 30.01 77.50 44.36 103.12 58.70 C 108.04 61.51 113.21 63.92 117.90 67.11 C 119.57 68.10 119.74 70.18 119.32 71.90 C 118.05 73.57 116.09 74.47 114.18 75.22 C 81.67 87.39 49.19 99.65 16.71 111.92 C 14.41 112.84 11.37 113.69 9.49 111.46 C 8.44 109.13 9.52 106.69 10.77 104.69 C 17.99 92.62 25.16 80.51 32.32 68.40 C 33.42 66.56 34.50 64.42 33.49 62.28 C 28.73 48.43 23.81 34.62 19.16 20.73 C 18.08 18.47 18.90 15.86 21.27 14.88 M 30.43 27.81 C 34.48 38.96 37.86 50.36 42.35 61.33 C 51.79 61.97 61.29 62.20 70.66 63.52 C 70.36 66.06 70.08 68.59 69.82 71.13 C 60.22 71.11 50.66 69.89 41.07 69.51 C 34.88 80.02 28.64 90.49 22.42 100.97 C 47.10 91.83 71.68 82.41 96.33 73.17 C 99.36 72.14 102.34 70.98 105.17 69.49 C 80.25 55.62 55.47 41.46 30.43 27.81 Z" />
</g>
</svg>
