<?xml version="1.0" encoding="iso-8859-1"?>
<!-- Generator: Adobe Illustrator 19.0.0, SVG Export Plug-In . SVG Version: 6.00 Build 0)  -->
<svg version="1.1" id="Capa_1" xmlns="http://www.w3.org/2000/svg" xmlns:xlink="http://www.w3.org/1999/xlink" x="0px" y="0px"
	 viewBox="0 0 496 496" style="enable-background:new 0 0 496 496;" xml:space="preserve">
<g>
	<g>
		<g>
			<path d="M0,408c0,22.056,17.944,40,40,40h96v32h-32v16h288v-16h-32v-32h96c22.056,0,40-17.944,40-40v-24H0V408z M344,480H152v-32
				h192V480z M16,400h464v8c0,13.232-10.768,24-24,24H40c-13.232,0-24-10.768-24-24V400z"/>
			<path d="M16,120c0-13.232,10.768-24,24-24h56V80H40C17.944,80,0,97.944,0,120v248h16V120z"/>
			<path d="M464,80.808V40h-96v100.944L409.888,120H464V97.472c9.288,3.312,16,12.112,16,22.528v248h16V120
				C496,100.688,482.232,84.528,464,80.808z M448,104h-41.888L384,115.056V56h64V104z"/>
			<polygon points="208,224 192,224 192,233.448 128,246.272 128,368 144,368 144,259.384 208,246.552 			"/>
			<polygon points="368,368 368,249.768 304,233.752 304,224 288,224 288,246.248 352,262.256 352,368 			"/>
			<path d="M112,264v-16H80c-8.824,0-16,7.176-16,16v64c0,8.824,7.176,16,16,16v24h16v-24h16v-16H80v-64H112z"/>
			<path d="M384,328v16h16v24h16v-24c8.824,0,16-7.176,16-16v-64c0-8.824-7.176-16-16-16h-32v16h32v64H384z"/>
			<path d="M163.248,159.52C173.688,197.216,208.368,224,248,224s74.312-26.784,84.752-64.48C343.72,157.304,352,147.608,352,136V80
				c0-12.544-9.704-22.752-21.976-23.792C316.96,22.368,284.712,0,248,0c-36.712,0-68.96,22.368-82.024,56.208
				C153.704,57.248,144,67.456,144,80v56C144,147.608,152.28,157.304,163.248,159.52z M248,208c-30.728,0-57.8-19.696-67.824-48
				h135.656C305.8,188.304,278.728,208,248,208z M248,16c27.824,0,52.528,15.696,64.512,40H183.488
				C195.472,31.696,220.176,16,248,16z M160,80c0-4.408,3.592-8,8-8h160c4.408,0,8,3.592,8,8v56c0,4.408-3.592,8-8,8H168
				c-4.408,0-8-3.592-8-8V80z"/>
			<path d="M212,128c11.024,0,20-8.976,20-20s-8.976-20-20-20s-20,8.976-20,20S200.976,128,212,128z M212,104c2.208,0,4,1.792,4,4
				s-1.792,4-4,4s-4-1.792-4-4S209.792,104,212,104z"/>
			<path d="M284,128c11.024,0,20-8.976,20-20s-8.976-20-20-20s-20,8.976-20,20S272.976,128,284,128z M284,104c2.208,0,4,1.792,4,4
				s-1.792,4-4,4s-4-1.792-4-4S281.792,104,284,104z"/>
			<path d="M320,368v-48c0-13.232-10.768-24-24-24h-96c-13.232,0-24,10.768-24,24v48h16v-48c0-4.416,3.592-8,8-8h96
				c4.408,0,8,3.584,8,8v48H320z"/>
			<path d="M208,368h16c0-13.232,10.768-24,24-24s24,10.768,24,24h16c0-22.056-17.944-40-40-40C225.944,328,208,345.944,208,368z"/>
			<rect x="400" y="72" width="32" height="16"/>
			<path d="M32,152v80h96V131.056L86.112,152H32z M112,156.944V216H48v-48h41.888L112,156.944z"/>
			<rect x="64" y="184" width="32" height="16"/>
		</g>
	</g>
</g>
<g>
</g>
<g>
</g>
<g>
</g>
<g>
</g>
<g>
</g>
<g>
</g>
<g>
</g>
<g>
</g>
<g>
</g>
<g>
</g>
<g>
</g>
<g>
</g>
<g>
</g>
<g>
</g>
<g>
</g>
</svg>
