<svg height="511pt" viewBox="0 -77 511.99963 511" width="511pt" xmlns="http://www.w3.org/2000/svg"><path d="m466.621094 351.234375c-1.242188 0-2.480469-.007813-3.710938-.015625l-410.847656-2.3125c-10.621094-.050781-22.660156-.105469-32.582031-5.394531-11.496094-6.136719-15.375-18.222657-12.371094-25.902344 3.519531-9.007813 13.949219-13.671875 32.816406-14.679687 40.976563-2.179688 82.570313-3.679688 123.628907-4.460938 7.511718-.144531 15.699218-.269531 25.03125-.378906l2.230468-.027344-.214844 2.21875c-.714843 7.433594 4.347657 14.144531 9.683594 17.503906 6.214844 3.894532 13.703125 4.96875 20.839844 5.734375 15.617188 1.679688 31.523438 2.527344 47.277344 2.527344 9.046875 0 18.195312-.28125 27.195312-.835937 7.433594-.460938 15.21875-1.261719 21.519532-5.441407 5.277343-3.492187 9.917968-11.070312 8.125-18.234375l-.640626-2.554687 2.632813.066406c18.828125.480469 37.84375 1.117187 56.519531 1.890625 8.933594.375 18.367188.632812 26.691406.859375 25.386719.703125 51.542969 1.429687 76.46875 4.980469 12.773438 1.824218 18.140626 10.617187 18.90625 18.238281.78125 7.820313-2.984374 18.609375-16.167968 23.296875-7.578125 2.695312-15.863282 2.921875-23.03125 2.921875zm0 0" fill="#d8deec"/><path d="m358.21875 242.492188c-1.242188 0-2.214844-.269532-2.972656-.824219-2.277344-1.625-1.894532-5.09375-1.453125-9.109375.488281-4.421875 1.039062-9.414063-2.484375-12.734375-1.609375-1.523438-3.675782-2.296875-6.136719-2.296875-2.644531 0-5.710937.910156-8.859375 2.636718l-.617188.34375c-1.816406.996094-3.4375 1.867188-5.03125 2.460938l-3.425781 1.289062.769531-3.582031c.359376-1.660156.785157-3.726562 1.261719-6.15625 1.125-5.761719 2.335938-12.457031 3.222657-17.34375l.503906-2.792969c.273437-1.53125.46875-2.617187.558594-3.050781.5-2.484375.675781-5.574219.863281-8.847656.28125-5.101563.597656-10.890625 2.328125-14.0625.425781-.800781.941406-1.269531 1.671875-1.507813l.109375-.035156c.34375-.09375.71875-.140625 1.117187-.140625 2.777344 0 6.96875 2.363281 11.023438 4.78125l.214843.128907c1.363282.808593 2.648438 1.574218 3.71875 2.085937l31.796876 15.21875c1.878906.902344 6.171874 3.277344 5.457031 5.910156-.238281.957031-1.132813 1.8125-2.695313 3.039063l-16.144531 12.601562c-.441406.347656-.726563.875-.777344 1.441406-.046875.550782.144531 1.113282.519531 1.53125l18.492188 20.398438-28.183594 7.761719c-1.082031.296875-3.09375.855469-4.847656.855469zm0 0" fill="#fff"/><path d="m208.957031 131.15625c-4.738281 0-9.242187-1.824219-12.355469-5.011719-2.785156-2.847656-4.261718-6.445312-4.261718-10.40625 0-3.046875.898437-6.304687 2.523437-9.175781 2.636719-4.6875 8.382813-10.164062 15.890625-10.164062 1.195313 0 2.402344.144531 3.585938.421874 7.109375 1.664063 11.605468 7.144532 12.027344 14.664063.382812 6.863281-3.121094 15.640625-11.710938 18.707031-1.800781.640625-3.714844.964844-5.699219.964844zm0 0" fill="#fff"/><path d="m139.488281 131.15625c-4.738281 0-9.246093-1.824219-12.363281-5.007812-2.792969-2.863282-4.261719-6.460938-4.261719-10.410157 0-3.046875.894531-6.304687 2.519531-9.175781 2.773438-4.914062 8.40625-10.164062 15.898438-10.164062 1.195312 0 2.402344.144531 3.589844.421874 7.101562 1.660157 11.59375 7.144532 12.019531 14.664063.378906 6.863281-3.121094 15.644531-11.707031 18.707031-1.796875.640625-3.714844.964844-5.695313.964844zm0 0" fill="#fff"/><path d="m271.589844 267.675781.074218-49.140625c.003907-1.117187-.898437-2.027344-2.007812-2.039062l-57.671875-.492188.703125-2.515625c1.4375-5.128906 1.230469-10.160156-.589844-14.542969l-1.074218-2.582031 2.789062-.183593c2.269531-.148438 4.535156-.316407 6.804688-.507813 9.421874-.816406 19.074218-2.4375 25.785156-8.671875 6.429687-5.96875 8.578125-14.6875 9.632812-20.726562l.246094-1.425782 1.433594-.210937c.25-.035157.414062-.074219.550781-.128907 12.25-5.15625 20.640625-18.554687 19.933594-31.851562-.695313-13.082031-10.300781-25.457031-22.839844-29.429688l-1.027344-.328124-.292969-1.042969c-1.96875-7.03125-4.714843-12.742188-8.398437-17.457031-7.84375-10.035157-18.988281-12.277344-29.863281-13.207032l-1.226563-.105468-.460937-1.136719c-5.613282-13.890625-19.847656-24.109375-34.613282-24.851563-.574218-.03125-1.148437-.042968-1.722656-.042968-14.933594 0-29.726562 9.433593-35.972656 22.945312l-.507812 1.09375-2.984376.144531c-4.84375.277344-11.144531.816407-16.78125 2.496094-5.679687 1.679687-10.042968 4.28125-13.347656 7.953125-5.515625 6.117188-7.097656 14.289062-7.917968 21.476562l-.117188 1.019532-.894531.5c-7.472657 4.179687-13.125 9.359375-16.796875 15.394531-4.394532 7.207031-5.699219 15.496094-3.585938 22.75 2.382813 8.171875 9.234375 14.398437 17.046875 15.488281.050781.007813.171875.023438.292969.023438l.253906-.039063 2.167969-.253906.09375 3.164063c.296875 6.441406.898437 13.222656 4.617187 18.683593 5.066407 7.460938 14.183594 10.242188 23.285157 12.136719 3.296875.6875 6.902343 1.367188 11.351562 2.136719l2.265625.394531-.703125 2.1875c-1.871093 5.832031-1.824219 12.410156.125 18.523438l.804688 2.527343-49.84375 1.496094c-1.035157.035156-1.882813.84375-1.964844 1.878906l-3.773437 48.246094-15.085938-.027344-4.136719-234.792969 1.929688-.101562c45.835937-2.339844 92.285156-3.628906 138.066406-3.832031 4.4375-.019531 8.890625-.027344 13.34375-.027344 37.121094 0 74.75.707031 111.839844 2.101563 20.714843.777343 42.066406 1.808593 63.460937 3.070312 5.792969.339844 11.8125.414062 18.1875.492188l.398438.003906c14.488281.171875 29.390625.351562 42.007812 3.6875 6.160156 1.617187 5.933594 4.382812 5.390625 11.066406-.113281 1.324219-.226562 2.738281-.285156 4.226562-.433594 10.714844-.953125 21.339844-1.550781 31.578126-1.175782 20.480468-2.730469 41.375-4.625 62.105468l-.128906 1.4375c-8.375 91.890625-12.421876 113.15625-13.773438 118.035156l-.410156 1.46875zm73.5625-46.09375c1.398437 0 2.53125.402344 3.367187 1.191407 2.050781 1.945312 1.65625 5.535156 1.242188 9.332031-.511719 4.617187-1.085938 9.824219 3.105469 12.863281 1.480468 1.078125 3.230468 1.597656 5.355468 1.597656 2.214844 0 4.328125-.578125 5.871094-1.003906l31.417969-8.640625c.683593-.195313 1.214843-.714844 1.410156-1.398437.199219-.6875.035156-1.40625-.441406-1.933594l-19.246094-21.222656 14.417969-11.265626c1.402344-1.089843 3.515625-2.730468 4.152344-5.269531 1.011718-4.011719-1.636719-7.65625-7.65625-10.539062l-31.796876-15.230469c-.976562-.46875-2.316406-1.265625-3.609374-2.035156-3.980469-2.375-8.933594-5.332032-13.191407-5.332032-.738281 0-1.445312.09375-2.097656.269532-1.816406.492187-3.296875 1.707031-4.285156 3.515625-2.160157 3.984375-2.488281 9.980469-2.808594 15.777343-.171875 3.128907-.335937 6.078126-.785156 8.28125-.101563.496094-.351563 1.878907-.707031 3.816407l-.195313 1.089843c-1.914063 10.636719-4.554687 25.039063-5.570313 28.238282l-.082031.25-.140625.21875c-.152344.242187-.25.488281-.292968.734375-.175782.996093.378906 1.945312 1.3125 2.277343 1.09375.394532 2.1875.585938 3.351562.585938 3.691406 0 7.25-1.957031 10.390625-3.6875l.625-.335938c1.171875-.640624 4.210937-2.144531 6.886719-2.144531zm-46.957032-82.59375c-1.109374 0-2.027343.894531-2.054687 1.992188-.023437 1.121093.871094 2.054687 1.996094 2.078125l117.5625 2.464844c1.03125-.078126 1.859375-.941407 1.882812-1.992188.019531-1.113281-.875-2.050781-1.996093-2.074219l-117.375-2.46875-.015626-2zm-1.917968-20.5625c-1.125 0-2.027344.871094-2.054688 1.988281-.027344 1.113282.863282 2.050782 1.984375 2.074219l130.863281 3.109375c1.089844 0 1.996094-.886718 2.023438-1.976562.015625-.550782-.183594-1.066406-.558594-1.457032-.371094-.390624-.875-.613281-1.417968-.625l-130.8125-3.113281-.027344-2zm4.738281-19.027343c-1.117187 0-2.003906.882812-2.015625 2.007812-.007812 1.121094.894531 2.042969 2.007812 2.050781l122.660157 1.121094c1.132812 0 2.042969-.902344 2.054687-2.007813.007813-1.121093-.890625-2.042968-2.007812-2.050781l-122.660156-1.121093-.039063-2zm-1.859375-20.929688c-1.148438 0-2.054688.882812-2.0625 2.007812-.011719 1.121094.890625 2.039063 2.007812 2.050782l128.410157 1.210937c1.128906 0 2.042969-.90625 2.050781-2.019531.003906-.539062-.203125-1.050781-.582031-1.441406-.382813-.386719-.894531-.605469-1.4375-.609375zm0 0" fill="#ed6d66"/><path d="m268.375 321.984375c-15.617188 0-31.371094-.839844-46.816406-2.496094-6.945313-.75-13.632813-1.703125-19.109375-5.148437-4.519531-2.839844-8.847657-8.65625-7.660157-14.714844l.316407-1.601562 1.628906-.015626c11.746094-.117187 23.691406-.175781 35.515625-.175781 28.519531 0 57.5625.34375 86.320312 1.015625l1.386719.035156.453125 1.308594c.046875.132813.089844.265625.15625.390625 2.917969 5.507813-.679687 12.496094-5.691406 15.804688-5.488281 3.636719-12.371094 4.332031-19.53125 4.769531-8.910156.550781-17.984375.828125-26.96875.828125zm0 0" fill="#bfc7d8"/><path d="m88.929688 267.425781 3.609374-46.125 50.050782-1.507812.609375.949219c1.523437 2.34375 3.316406 4.40625 5.332031 6.121093 6.203125 5.285157 15.066406 8.324219 25.628906 8.796875.890625.039063 1.832032.066406 2.800782.066406 7.824218 0 18.929687-1.546874 27.421874-8.910156 1.859376-1.609375 3.527344-3.574218 4.960938-5.832031l.59375-.9375 57.667969.496094-.078125 47.125zm0 0" fill="#5bd0fc"/><path d="m192.769531 192.804688c-21.898437 0-43.886719-2.273438-65.347656-6.75-8.261719-1.726563-16.496094-4.1875-20.746094-10.441407-3.136719-4.609375-3.640625-10.496093-3.910156-16.625-.816406-17.890625-.433594-35.972656 1.144531-53.746093.707032-7.933594 1.914063-16.894532 7.265625-22.832032 6.296875-6.992187 16.867188-8.515625 27.351563-9.117187 7.992187-.457031 16.128906-.6875 24.183594-.6875 12.488281 0 25.09375.550781 37.46875 1.640625 2.429687.210937 4.949218.355468 7.386718.496094l.5.027343c1.210938.0625 2.425782.128907 3.632813.203125l.339843.019532.3125.128906c.261719.109375.523438.167968.761719.167968.144531 0 .3125-.027343.496094-.074218l.324219-.085938.339844.023438c9.757812.730468 20.785156 2.300781 28.15625 11.746094 6.847656 8.757812 9.082031 20.308593 10.265624 29.390624 1.949219 14.964844 1.933594 30.164063-.039062 45.179688-1.058594 7.992188-2.957031 16.921875-9.023438 22.554688-6.109374 5.675781-15.265624 6.898437-23.367187 7.597656-9.113281.785156-18.363281 1.183594-27.496094 1.183594zm-12.402343-48.316407c-15.808594.128907-30.832032 2.113281-35.0625 2.71875-8.703126 1.234375-13.773438 4.683594-14.660157 9.972657-.589843 3.488281 1.015625 7.3125 4.191407 9.976562 2.667968 2.242188 6.015624 3.425781 8.941406 4.355469 13.921875 4.425781 29.097656 6.765625 43.882812 6.765625 3.3125 0 6.609375-.113282 9.789063-.335938 4.804687-.335937 9.875-.953125 14.402343-3.195312 5.28125-2.609375 8.851563-7.125 9.546876-12.085938.546874-3.828125-.585938-7.273437-3.28125-9.96875-5.535157-5.523437-17.367188-8.210937-36.175782-8.210937-.519531 0-1.042968.003906-1.574218.007812zm30.566406-52.117187c-7.972656 0-15.308594 4.558594-19.621094 12.191406-4.773438 8.46875-3.839844 18.054688 2.378906 24.417969 3.875 3.972656 9.425782 6.246093 15.230469 6.246093 2.464844 0 4.851563-.40625 7.09375-1.210937 9.046875-3.226563 14.96875-12.582031 14.410156-22.757813-.519531-9.265624-6.324219-16.3125-15.152343-18.390624-1.386719-.332032-2.847657-.496094-4.339844-.496094zm-69.480469 0c-7.964844 0-15.296875 4.558594-19.609375 12.191406-4.78125 8.460938-3.847656 18.046875 2.378906 24.417969 3.871094 3.972656 9.421875 6.246093 15.230469 6.246093 2.453125 0 4.839844-.40625 7.09375-1.210937 9.046875-3.226563 14.96875-12.585937 14.398437-22.757813-.519531-9.265624-6.324218-16.316406-15.152343-18.394531-1.386719-.328125-2.847657-.492187-4.339844-.492187zm0 0" fill="#5bd0fc"/><path d="m257.261719 156.972656c1.417969-13.710937 1.234375-27.574218-.542969-41.207031-.195312-1.5-.414062-3.011719-.652344-4.492187l-.648437-4.042969 3.589843 1.976562c8.675782 4.773438 14.613282 14.0625 15.132813 23.664063.539063 10.105468-5.019531 20.558594-13.835937 26.007812l-3.457032 2.136719zm0 0" fill="#288fc9"/><path d="m191.546875 148.828125 2.121094.175781c10.851562.902344 18.109375 3.109375 21.578125 6.566406 1.804687 1.804688 2.503906 3.941407 2.136718 6.527344-.5 3.5625-3.308593 7.015625-7.335937 9.003906-3.890625 1.929688-8.488281 2.476563-12.875 2.78125-1.421875.109376-2.832031.167969-4.023437.210938l-2.117188.082031zm0 0" fill="#288fc9"/><path d="m181.867188 212.640625c-13.242188 0-26.136719-2.289063-38.339844-6.808594l-1.285156-.476562-.019532-1.371094c-.042968-3.242187.5-6.363281 1.625-9.277344l.570313-1.492187 1.582031.230468c15.582031 2.269532 31.316406 3.421876 46.773438 3.421876 3.960937 0 8.148437-.085938 12.441406-.25l1.609375-.0625.402343 1.5625c.058594.222656.117188.378906.183594.488281 1.488282 2.554687 2.214844 5.828125 2.070313 9.253906l-.085938 2.070313-2.066406-.160157c-.078125-.007812-.152344-.007812-.230469-.007812-.144531 0-.269531.011719-.375.035156-8.042968 1.886719-16.414062 2.84375-24.855468 2.84375zm0 0" fill="#288fc9"/><path d="m206.597656 70.613281c-2.167968-.125-4.117187-.246093-6.066406-.414062-12.367188-1.089844-25.023438-1.640625-37.613281-1.640625-4.480469 0-9.023438.070312-13.503907.207031l-3.804687.117187 2.0625-3.199218c6.484375-10.0625 18.261719-16.5625 30-16.5625.535156 0 1.066406.011718 1.601563.039062 11.78125.585938 23.238281 7.839844 29.1875 18.480469l1.78125 3.1875zm0 0" fill="#288fc9"/><path d="m176.910156 231.664062c-.847656 0-1.703125-.019531-2.566406-.058593-6.738281-.304688-16.226562-1.90625-23.175781-7.824219-3.007813-2.570312-5.417969-5.996094-6.972657-9.914062l-1.566406-3.941407 4.035156 1.296875c11.320313 3.640625 23.160157 5.484375 35.191407 5.484375 7.714843 0 15.398437-.777343 22.84375-2.308593l4.171875-.859376-2.003906 3.757813c-1.300782 2.441406-3.03125 4.613281-5.140626 6.449219-5.890624 5.105468-14.699218 7.917968-24.816406 7.917968zm0 0" fill="#288fc9"/><path d="m184.964844 174.175781c-7.972656-.152343-15.9375-.972656-23.675782-2.445312l-1.59375-.300781-.40625-21.792969 1.863282-.160157c7.199218-.621093 14.050781-.933593 20.363281-.933593 1.34375 0 2.667969.015625 3.972656.046875l1.996094.042968-.523437 25.582032zm0 0" fill="#288fc9"/><path d="m153.085938 169.917969c-2.734376-.683594-5.453126-1.453125-8.078126-2.285157-2.679687-.851562-5.464843-1.832031-7.5625-3.59375-2.046874-1.71875-3.144531-4.148437-2.792968-6.191406.710937-4.253906 6.496094-5.949218 11.21875-6.621094 2.132812-.308593 4.414062-.601562 7.167968-.925781l2.191407-.253906.390625 20.503906zm0 0" fill="#288fc9"/><path d="m96.078125 152.21875c-6.09375-1.027344-11.457031-6.0625-13.335937-12.53125-1.761719-6.058594-.585938-13.347656 3.152343-19.5 2.441407-3.996094 5.910157-7.621094 10.300781-10.773438l3.46875-2.492187-.308593 4.257813c-.933594 12.949218-1.25 26.078124-.945313 39.019531l.058594 2.421875zm0 0" fill="#288fc9"/><path d="m473.140625 301.015625c-20.503906-2.097656-41.570313-2.6875-61.945313-3.261719l-.636718-.015625c-8.304688-.230469-17.71875-.488281-26.636719-.851562-50.003906-2.078125-100.960937-3.132813-151.449219-3.132813-22.972656 0-46.183594.21875-68.992187.652344-39.632813.757812-79.867188 2.1875-119.585938 4.25l-2 .101562-12.417969-249.910156c-.648437-13.011718-.050781-25.996094 8.628907-32.8125 5.585937-4.375 13.105469-5.078125 21.640625-5.496094 54.886718-2.640624 110.78125-3.976562 166.125-3.976562 85.84375 0 172.488281 3.207031 257.519531 9.53125l1.917969.140625-9.972656 282.605469c.003906.0625.003906.121094.003906.1875v2.214844zm-254.710937-276.445313c-4.277344 0-8.542969.007813-12.808594.027344-47.265625.21875-95.09375 1.582032-142.152344 4.046875-1.101562.054688-1.945312.960938-1.925781 2.054688l4.210937 238.761719c.019532 1.097656.933594 1.992187 2.039063 1.996093l372.605469.519531c2.453124 0 3.597656-2.527343 5.976562-18.335937 1.363281-9.074219 2.945312-21.820313 4.710938-37.890625 2.09375-19.085938 4.328124-41.621094 6.636718-66.972656l.128906-1.429688c1.886719-20.617187 3.445313-41.5625 4.636719-62.253906.59375-10.246094 1.113281-20.890625 1.546875-31.636719.054688-1.257812.148438-2.464843.242188-3.632812l.035156-.421875c.539062-6.609375 1.050781-12.839844-8.398438-15.339844-13.148437-3.472656-28.324218-3.648438-43-3.816406l-.402343-.003906c-6.316407-.078126-12.285157-.152344-17.984375-.488282-20.808594-1.234375-42.195313-2.269531-63.558594-3.078125-37.261719-1.398437-75.125-2.105469-112.539062-2.105469zm0 0" fill="#939baa"/><g fill="#231f20"><path d="m511.855469 324.414062c-1.246094-12.449218-10.699219-21.726562-24.085938-23.632812-2.152343-.308594-4.3125-.585938-6.476562-.855469.054687-.242187.09375-.496093.101562-.757812l10.046875-284.671875c.078125-2.164063-1.566406-4-3.726562-4.164063-141.964844-10.71875-286.050782-12.683593-428.261719-5.84375-7.394531.355469-17.519531.84375-25.085937 6.78125-10.851563 8.515625-11.675782 23.238281-10.949219 37.882813l12.324219 247.980468c-13.023438 1.066407-28.925782 4.558594-34.285157 18.273438-2.359375 6.046875-1.839843 12.964844 1.464844 19.484375 2.941406 5.796875 7.9375 10.890625 13.707031 13.96875 11.214844 5.980469 24.625 6.058594 35.402344 6.117187l410.847656 2.308594c1.121094.007813 2.261719.011719 3.417969.011719 8.167969 0 17.074219-.320313 25.382813-3.269531 11.121093-3.949219 21.675781-14.640625 20.175781-29.613282zm-472.511719-306.804687c5.125-4.023437 12.316406-4.675781 20.496094-5.066406 140.585937-6.761719 283.023437-4.898438 423.40625 5.542969l-9.910156 280.800781c0 .046875.011718.09375.011718.140625-20.792968-2.125-42.046875-2.714844-62.730468-3.285156-8.765626-.242188-17.828126-.496094-26.617188-.859376-73.152344-3.039062-147.363281-3.871093-220.5625-2.476562-39.714844.757812-79.941406 2.191406-119.648438 4.253906l-12.316406-247.910156c-.621094-12.476562-.097656-24.886719 7.871094-31.140625zm279.453125 283.902344c2.3125 4.378906-.730469 10.363281-5.023437 13.203125-5.074219 3.359375-11.667969 4.019531-18.546876 4.445312-24.417968 1.503906-49.128906.945313-73.453124-1.664062-6.703126-.722656-13.144532-1.632813-18.257813-4.847656-4.167969-2.621094-7.722656-7.738282-6.761719-12.640626 40.5-.398437 81.199219-.113281 121.773438.839844.070312.226563.15625.449219.269531.664063zm170.183594 44.917969c-8.152344 2.894531-17.257813 2.84375-26.058594 2.792968l-410.847656-2.308594c-10.402344-.058593-22.195313-.125-31.652344-5.171874-10.527344-5.613282-14.144531-16.519532-11.453125-23.402344 3.199219-8.195313 13.070312-12.457032 31.066406-13.414063 40.96875-2.175781 82.539063-3.675781 123.554688-4.457031 8.328125-.160156 16.667968-.28125 25.019531-.378906-.789063 8.203125 4.65625 15.636718 10.617187 19.382812 6.566407 4.128906 14.3125 5.246094 21.6875 6.039063 15.726563 1.6875 31.613282 2.535156 47.484376 2.535156 9.125 0 18.246093-.28125 27.324218-.84375 7.695313-.472656 15.773438-1.308594 22.503906-5.765625 6.296876-4.167969 10.898438-12.644531 8.960938-20.394531 18.875.488281 37.714844 1.117187 56.480469 1.894531 8.84375.367188 17.9375.617188 26.726562.863281 25.269531.699219 51.398438 1.421875 76.238281 4.960938 11.636719 1.65625 16.515626 9.585937 17.203126 16.453125.707031 7.101562-2.753907 16.917968-14.855469 21.214844zm0 0"/><path d="m67.78125 273.457031 372.613281.519531h.007813c4.355468 0 5.542968-4.035156 7.949218-20.042968 1.363282-9.070313 2.953126-21.84375 4.722657-37.960938 2.0625-18.769531 4.296875-41.320312 6.636719-67.015625l.128906-1.433593c1.894531-20.664063 3.457031-41.628907 4.648437-62.316407.59375-10.351562 1.117188-21.003906 1.546875-31.671875.054688-1.378906.164063-2.703125.269532-3.980468.53125-6.460938 1.191406-14.5-9.875-17.421876-13.375-3.535156-28.6875-3.714843-43.492188-3.886718-6.441406-.074219-12.527344-.148438-18.296875-.488282-21.082031-1.246093-42.480469-2.28125-63.59375-3.074218-41.59375-1.566406-83.792969-2.265625-125.433594-2.082032-47.238281.214844-95.09375 1.574219-142.246093 4.042969-2.167969.113281-3.859376 1.925781-3.820313 4.097657l4.210937 238.753906c.035157 2.195312 1.824219 3.957031 4.023438 3.960937zm70.859375-198.164062c20.367187-1.160157 41.011719-.84375 61.359375.945312 2.636719.234375 5.339844.382813 7.957031.523438 1.21875.070312 2.425781.136719 3.628907.210937.480468.199219.992187.316406 1.523437.316406.335937 0 .675781-.054687 1.015625-.144531 10.550781.789063 20.1875 2.605469 26.730469 10.984375 6.546875 8.382813 8.707031 19.589844 9.855469 28.414063 1.929687 14.820312 1.914062 29.847656-.039063 44.664062-1.007813 7.632813-2.792969 16.140625-8.398437 21.347657-5.65625 5.25-14.414063 6.40625-22.183594 7.074218-30.878906 2.660156-61.917969.800782-92.253906-5.53125-7.855469-1.640625-15.652344-3.9375-19.507813-9.609375-2.828125-4.160156-3.300781-9.75-3.570313-15.59375-.808593-17.769531-.421874-35.761719 1.144532-53.480469.675781-7.601562 1.808594-16.171874 6.757812-21.667968 5.824219-6.460938 15.925782-7.878906 25.980469-8.453125zm10.714844-8.523438c6.324219-9.828125 18.109375-16.195312 29.820312-15.613281 11.296875.5625 22.023438 7.601562 27.539063 17.460938-2.050782-.117188-4.046875-.238282-6.007813-.410157-17.023437-1.496093-34.246093-1.964843-51.351562-1.4375zm109.351562 48.734375c-.191406-1.460937-.414062-2.984375-.667969-4.546875 7.9375 4.375 13.617188 12.941407 14.101563 22.019531.507813 9.5625-4.765625 19.183594-12.886719 24.203126 1.425782-13.859376 1.25-27.851563-.546875-41.675782zm-65.933593 83.363282c4.171874 0 8.347656-.09375 12.519531-.25.09375.351562.214843.703124.40625 1.035156 1.285156 2.199218 1.914062 5.058594 1.785156 8.121094-.394531-.027344-.796875-.015626-1.203125.078124-20.402344 4.773438-42.402344 3.378907-62.058594-3.890624-.035156-2.925782.449219-5.835938 1.492188-8.535157 15.59375 2.277344 31.3125 3.441407 47.058594 3.441407zm12.328124 17.496093c-1.132812 2.113281-2.671874 4.125-4.6875 5.871094-6.035156 5.230469-15.265624 7.851563-25.984374 7.371094-6.425782-.289063-15.449219-1.796875-21.964844-7.351563-2.84375-2.421875-5.015625-5.609375-6.414063-9.128906 11.515625 3.703125 23.667969 5.578125 35.804688 5.578125 7.8125 0 15.621093-.777344 23.246093-2.339844zm-57.867187 12.027344c6.535156 5.570313 15.816406 8.777344 26.832031 9.269531.929688.039063 1.894532.0625 2.894532.0625 8.753906 0 19.988281-1.816406 28.734374-9.398437 2.015626-1.746094 3.824219-3.882813 5.335938-6.269531l54.566406.46875-.0625 43.144531-174.441406-.242188 3.300781-42.171875 47.125-1.421875c1.585938 2.429688 3.484375 4.660157 5.714844 6.558594zm58.414063-197.726563c41.523437-.1875 83.613281.511719 125.09375 2.074219 21.054687.792969 42.394531 1.824219 63.421874 3.066407 5.960938.355468 12.136719.425781 18.675782.5 14.316406.167968 29.121094.339843 41.527344 3.621093 4.371093 1.15625 4.464843 2.078125 3.902343 8.96875-.109375 1.296875-.230469 2.769531-.292969 4.3125-.429687 10.621094-.949218 21.230469-1.539062 31.539063-1.1875 20.59375-2.742188 41.46875-4.625 62.042968l-.132812 1.433594c-6.855469 75.269532-11.457032 109.566406-13.707032 117.691406l-164.375-.234374.070313-47.144532c.003906-2.21875-1.78125-4.019531-4-4.039062l-55.054688-.472656c1.445313-5.171876 1.445313-10.742188-.671875-15.84375 2.28125-.148438 4.5625-.320313 6.84375-.515626 9.773438-.84375 19.804688-2.542968 26.976563-9.203124 6.300781-5.847657 8.871093-14.003907 10.242187-21.839844.339844-.046875.683594-.125 1.015625-.265625 13.019531-5.484375 21.925781-19.699219 21.171875-33.808594-.742187-13.960937-10.90625-27.011719-24.230468-31.222656-1.746094-6.257813-4.425782-12.621094-8.75-18.160157-8.21875-10.519531-19.917969-13-31.273438-13.960937-5.863281-14.523437-20.6875-25.320313-36.359375-26.101563-16.296875-.796874-32.769531 9.25-39.613281 24.054688-.59375.03125-1.191406.050781-1.78125.085938-11.773438.671874-23.734375 2.480468-31.507813 11.105468-5.699219 6.324219-7.519531 14.699219-8.421875 22.589844-7.777344 4.355469-13.679687 9.769531-17.53125 16.097656-4.6875 7.691406-6.070312 16.566406-3.800781 24.351563 2.601563 8.910156 10.113281 15.707031 18.695313 16.910156.1875.027344.375.039063.5625.039063.167968 0 .328124-.027344.492187-.046876.015625.324219.019531.648438.035156.972657.308594 6.765625.945313 13.863281 4.953125 19.757812 5.464844 8.039063 15.019532 10.984375 24.527344 12.96875 3.800781.792969 7.609375 1.492188 11.429688 2.148438-2.050782 6.386719-1.917969 13.371093.117187 19.742187l-47.195313 1.421875c-2.058593.0625-3.738281 1.664063-3.898437 3.714844l-3.632813 46.398437-11.261718-.019531-4.070313-230.898437c45.765625-2.335938 92.160157-3.625 137.972657-3.832032zm-109.238282 119.585938c-5.28125-.890625-10.082031-5.410156-11.75-11.121094-1.613281-5.53125-.511718-12.222656 2.945313-17.898437 2.300781-3.777344 5.578125-7.1875 9.761719-10.191407-.949219 13.015626-1.261719 26.148438-.957032 39.210938zm0 0"/><path d="m122.789062 130.378906c4.332032 4.433594 10.464844 6.847656 16.664063 6.847656 2.621094 0 5.253906-.433593 7.765625-1.328124 9.875-3.515626 16.339844-13.695313 15.726562-24.75-.570312-10.191407-6.960937-17.945313-16.6875-20.234376-8.351562-1.964843-19.675781 1.191407-26.15625 12.667969-5.226562 9.257813-4.171874 19.777344 2.6875 26.796875zm4.332032-22.832031c3.191406-5.648437 9.769531-10.550781 17.289062-8.78125 6.199219 1.457031 10.117188 6.253906 10.484375 12.832031.339844 6.144532-2.761719 13.992188-10.382812 16.707032-5.449219 1.941406-12.011719.476562-15.957031-3.558594-5.207032-5.328125-4.152344-12.378906-1.433594-17.199219zm0 0"/><path d="m192.261719 130.378906c4.335937 4.433594 10.46875 6.847656 16.664062 6.847656 2.621094 0 5.257813-.433593 7.769531-1.328124 9.871094-3.515626 16.339844-13.695313 15.722657-24.75-.566407-10.191407-6.960938-17.945313-16.6875-20.234376-8.347657-1.964843-19.671875 1.191407-26.152344 12.667969-5.230469 9.257813-4.175781 19.777344 2.683594 26.796875zm4.335937-22.832031c3.1875-5.648437 9.769532-10.554687 17.285156-8.785156 6.199219 1.460937 10.117188 6.257812 10.484376 12.835937.34375 6.140625-2.761719 13.992188-10.378907 16.707032-5.453125 1.941406-12.015625.476562-15.957031-3.5625v.003906c-5.207031-5.332032-4.15625-12.378906-1.433594-17.199219zm0 0"/><path d="m128.667969 156.84375c-.707031 4.191406 1.164062 8.730469 4.882812 11.84375 2.949219 2.476562 6.511719 3.738281 9.621094 4.726562 14.25 4.527344 29.453125 6.863282 44.496094 6.863282 3.316406 0 6.628906-.113282 9.921875-.34375 5-.347656 10.300781-1 15.148437-3.394532 5.875-2.90625 9.855469-7.988281 10.648438-13.597656.628906-4.480468-.703125-8.515625-3.859375-11.664062-6.085938-6.078125-18.910156-8.953125-39.179688-8.785156-15.90625.128906-31.0625 2.121093-35.328125 2.730468-12.1875 1.738282-15.617187 7.28125-16.351562 11.621094zm86.734375 4.972656c-.414063 2.925782-2.804688 5.796875-6.238282 7.492188-3.59375 1.777344-7.957031 2.292968-12.136718 2.582031-1.316406.09375-2.636719.15625-3.957032.210937l.425782-21.105468c9.527344.792968 17.007812 2.667968 20.332031 5.988281 1.367187 1.363281 1.851563 2.851563 1.574219 4.832031zm-29.960938-11.230468-.4375 21.597656c-7.8125-.152344-15.648437-.957032-23.335937-2.414063l-.351563-18.296875c8.289063-.71875 16.589844-1.058594 24.125-.886718zm-32.171875 1.703124.300781 15.691407c-2.679687-.671875-5.335937-1.417969-7.953124-2.25-2.484376-.789063-5.058594-1.691407-6.886719-3.222657-1.488281-1.246093-2.335938-2.984374-2.109375-4.324218.5625-3.347656 6.855468-4.597656 9.535156-4.976563 2.332031-.335937 4.710938-.640625 7.113281-.917969zm0 0"/><path d="m299.085938 84.53125 128.402343 1.203125h.039063c2.210937 0 4.011718-1.78125 4.03125-3.996094.019531-2.226562-1.765625-4.046875-3.992188-4.066406l-128.40625-1.203125c-2.269531 0-4.050781 1.765625-4.070312 3.992188-.019532 2.226562 1.769531 4.046874 3.996094 4.070312zm0 0"/><path d="m423.730469 98.519531-122.664063-1.125c-2.269531-.023437-4.046875 1.769531-4.066406 3.996094s1.769531 4.046875 3.996094 4.070313l122.660156 1.121093h.039062c2.207032 0 4.007813-1.78125 4.03125-3.996093.015626-2.226563-1.769531-4.046876-3.996093-4.066407zm0 0"/><path d="m296.160156 124.488281 130.808594 3.109375h.097656c2.183594 0 3.976563-1.742187 4.03125-3.933594.050782-2.226562-1.710937-4.074218-3.9375-4.125l-130.808594-3.113281c-2.238281-.039062-4.074218 1.710938-4.125 3.9375-.054687 2.226563 1.707032 4.070313 3.933594 4.125zm0 0"/><path d="m415.632812 139.460938-117.375-2.46875c-2.210937-.035157-4.070312 1.71875-4.117187 3.945312s1.722656 4.066406 3.945313 4.113281l117.378906 2.46875c.027344 0 .054687.003907.085937.003907 2.1875 0 3.980469-1.75 4.027344-3.949219.046875-2.222657-1.71875-4.066407-3.945313-4.113281zm0 0"/><path d="m380.164062 212.617188 12.71875-9.9375c1.519532-1.183594 4.054688-3.167969 4.863282-6.367188.726562-2.878906.558594-8.378906-8.738282-12.828125l-31.792968-15.222656c-.875-.417969-2.125-1.164063-3.445313-1.949219-5.066406-3.019531-11.375-6.773438-16.847656-5.273438-2.359375.644532-4.261719 2.195313-5.503906 4.480469-2.378907 4.371094-2.722657 10.601563-3.058594 16.628907-.167969 3.050781-.328125 5.933593-.746094 7.988281-.121093.59375-.453125 2.425781-.910156 4.957031-1.109375 6.171875-4.410156 24.523438-5.511719 27.980469-.285156.441406-.484375.945312-.578125 1.488281-.339843 1.929688.761719 3.824219 2.605469 4.488281 5.746094 2.066407 11.089844-.871093 15.386719-3.226562l.609375-.335938c2.707031-1.480469 6.410156-2.695312 7.929687-1.257812 1.332031 1.257812.988281 4.367187.625 7.660156-.542969 4.886719-1.214843 10.972656 3.921875 14.699219 2.066406 1.5 4.359375 1.976562 6.527344 1.976562 2.511719 0 4.851562-.644531 6.449219-1.085937l31.375-8.632813c1.347656-.375 2.410156-1.417968 2.800781-2.761718s.054688-2.796876-.886719-3.832032zm-56.855468 8.8125c.191406-.066407.398437-.117188.617187-.152344-.210937.035156-.417969.085937-.617187.152344zm39.222656 18.277343c-1.550781.425781-4.78125 1.316407-6.101562.355469-1.253907-.90625-1.070313-3.472656-.648438-7.289062.511719-4.628907 1.152344-10.390626-3.097656-14.40625-2-1.890626-4.570313-2.835938-7.515625-2.835938-2.964844 0-6.304688.960938-9.820313 2.878906l-.625.34375c-1.605468.878906-3.238281 1.777344-4.761718 2.339844.363281-1.671875.789062-3.742188 1.269531-6.191406 1.214843-6.195313 2.535156-13.53125 3.410156-18.386719.4375-2.4375.753906-4.203125.871094-4.773437.535156-2.632813.710937-5.796876.894531-9.148438.273438-4.894531.582031-10.445312 2.089844-13.222656.261718-.480469.4375-.527344.554687-.558594 2.164063-.597656 7.644531 2.667969 10.585938 4.421875 1.484375.886719 2.886719 1.722656 4.097656 2.300781l31.792969 15.21875c3.300781 1.582032 4.511718 3.140625 4.398437 3.585938-.132812.519531-1.445312 1.546875-2.007812 1.984375l-16.136719 12.605469c-.882812.691406-1.441406 1.71875-1.535156 2.832031-.097656 1.117187.277344 2.222656 1.03125 3.054687l16.304687 17.992188zm0 0"/></g></svg>