<svg height="480pt" viewBox="-40 0 480 480" width="480pt" xmlns="http://www.w3.org/2000/svg"><path d="m24 304v152c.027344 8.824219 7.175781 15.972656 16 16h320c8.824219-.027344 15.972656-7.175781 16-16v-152zm0 0" fill="#5aaae7"/><path d="m384 208h-368c-4.417969 0-8 3.582031-8 8v88l16 9.601562 12.558594 7.519532c7.46875 4.484375 16.011718 6.863281 24.722656 6.878906h277.4375c8.710938-.015625 17.253906-2.394531 24.722656-6.878906l12.558594-7.519532 16-9.601562v-88c0-4.417969-3.582031-8-8-8zm0 0" fill="#3d9ae2"/><path d="m272 312h32v32h-32zm0 0" fill="#d1d3d4"/><path d="m96 312h32v32h-32zm0 0" fill="#d1d3d4"/><path d="m312 376v48c-.027344 8.824219-7.175781 15.972656-16 16h-192c-8.824219-.027344-15.972656-7.175781-16-16v-48zm0 0" fill="#78b9eb"/><path d="m296 128v32h-40c8.824219-.027344 15.972656-7.175781 16-16v-16zm0 0" fill="#898890"/><path d="m128 144v16h-24v-32h24zm0 0" fill="#898890"/><path d="m128 8h128v32h-128zm0 0" fill="#1e81ce"/><g fill="#ffdaaa"><path d="m224 136v48h-32v-48c.027344-8.824219 7.175781-15.972656 16-16 8.808594.066406 15.933594 7.191406 16 16zm0 0"/><path d="m244.71875 155.28125c2.964844 3.039062 7.035156 4.742188 11.28125 4.71875v8c-.027344 8.824219-7.175781 15.972656-16 16h-16v-48c.027344-8.824219 7.175781-15.972656 16-16v24c-.023438 4.246094 1.679688 8.316406 4.71875 11.28125zm0 0"/><path d="m160 136v48h-16c-8.824219-.027344-15.972656-7.175781-16-16v-32c.027344-8.824219 7.175781-15.972656 16-16 8.808594.066406 15.933594 7.191406 16 16zm0 0"/><path d="m192 136v48h-32v-48c.027344-8.824219 7.175781-15.972656 16-16 8.808594.066406 15.933594 7.191406 16 16zm0 0"/><path d="m272 144c-.027344 8.824219-7.175781 15.972656-16 16-8.808594-.066406-15.933594-7.191406-16-16v-24c-8.824219.027344-15.972656 7.175781-16 16-.066406-8.808594-7.191406-15.933594-16-16-8.824219.027344-15.972656 7.175781-16 16-.066406-8.808594-7.191406-15.933594-16-16-8.824219.027344-15.972656 7.175781-16 16-.066406-8.808594-7.191406-15.933594-16-16-8.824219.027344-15.972656 7.175781-16 16v-96h128l16 32zm0 0"/></g><path d="m384 200h-80v-72c0-4.417969-3.582031-8-8-8h-16v-48c.011719-1.238281-.261719-2.460938-.800781-3.574219l-15.199219-30.3125v-30.113281c0-4.417969-3.582031-8-8-8h-128c-4.417969 0-8 3.582031-8 8v112h-16c-4.417969 0-8 3.582031-8 8v72h-80c-8.835938 0-16 7.164062-16 16v88c0 2.808594 1.472656 5.410156 3.878906 6.855469l12.121094 7.273437v137.871094c0 13.253906 10.746094 24 24 24h320c13.253906 0 24-10.746094 24-24v-137.871094l12.121094-7.273437c2.40625-1.445313 3.878906-4.046875 3.878906-6.855469v-88c0-8.835938-7.164062-16-16-16zm-96-64v16h-9.472656c.949218-2.5625 1.445312-5.269531 1.472656-8v-8zm-120 0c0-4.417969 3.582031-8 8-8s8 3.582031 8 8v40h-16zm8-24c-5.921875.019531-11.625 2.246094-16 6.238281-6.445312-6.015625-15.738281-7.875-24-4.796875v-65.441406h115.054688l12.945312 25.886719v70.113281c0 4.417969-3.582031 8-8 8s-8-3.582031-8-8v-32c0-4.417969-3.582031-8-8-8-22.082031-.027344-39.972656-17.917969-40-40h-16c.023438 19.957031 10.664062 38.398438 27.9375 48.398438-7.199219-1.371094-14.617188.804687-19.9375 5.839843-4.375-3.992187-10.078125-6.21875-16-6.238281zm-40 32v-8c0-4.417969 3.582031-8 8-8s8 3.582031 8 8v40h-8c-4.417969 0-8-3.582031-8-8zm64-8c0-4.417969 3.582031-8 8-8s8 3.582031 8 8v40h-16zm22.832031-18.71875c.566407.183594 1.152344.328125 1.726563.496094l-.558594.460937c-.375-.335937-.800781-.636719-1.167969-.957031zm9.167969 26.71875c.042969 10.132812 6.445312 19.148438 16 22.527344v1.472656c0 4.417969-3.582031 8-8 8h-8zm16-128v16h-112v-16zm-128 120v16h-8v-16zm-8 32h8c0 13.253906 10.746094 24 24 24h96c13.253906 0 24-10.746094 24-24h24v32h-176zm256 288c0 4.417969-3.582031 8-8 8h-320c-4.417969 0-8-3.582031-8-8v-128.273438l.480469.289063c8.699219 5.226563 18.652343 7.992187 28.800781 8h26.71875v8c0 4.417969 3.582031 8 8 8h32c4.417969 0 8-3.582031 8-8v-8.015625h128v8c0 4.417969 3.582031 8 8 8h32c4.417969 0 8-3.582031 8-8v-8h26.703125c10.148437-.007812 20.101563-2.773438 28.800781-8l.496094-.273438zm-264-120v-16h16v16zm176 0v-16h16v16zm104-36.527344-24.71875 14.824219c-6.214844 3.730469-13.328125 5.703125-20.578125 5.703125h-26.703125v-8c0-4.417969-3.582031-8-8-8h-32c-4.417969 0-8 3.582031-8 8v8h-128v-8c0-4.417969-3.582031-8-8-8h-32c-4.417969 0-8 3.582031-8 8v8h-26.703125c-7.253906 0-14.367187-1.972656-20.585937-5.703125l-24.710938-14.824219v-83.472656h368zm0 0"/><path d="m312 368h-224c-4.417969 0-8 3.582031-8 8v48c0 13.253906 10.746094 24 24 24h192c13.253906 0 24-10.746094 24-24v-48c0-4.417969-3.582031-8-8-8zm-8 56c0 4.417969-3.582031 8-8 8h-192c-4.417969 0-8-3.582031-8-8v-40h208zm0 0"/><path d="m192 400h16v16h-16zm0 0"/><path d="m224 400h16v16h-16zm0 0"/><path d="m160 400h16v16h-16zm0 0"/></svg>