<?xml version="1.0" encoding="utf-8"?>
<!-- Generator: Adobe Illustrator 19.0.0, SVG Export Plug-In . SVG Version: 6.00 Build 0)  -->
<svg xmlns="http://www.w3.org/2000/svg" xmlns:xlink="http://www.w3.org/1999/xlink" version="1.1" id="Layer_1" x="0px" y="0px" viewBox="0 2 98 98" style="enable-background:new 0 2 98 98;" xml:space="preserve" width="512" height="512">
<style type="text/css">
	.st0{fill:url(#SVGID_1_);}
	.st1{fill:url(#SVGID_2_);}
	.st2{fill:url(#SVGID_3_);}
</style>
<g>
	
		<linearGradient id="SVGID_1_" gradientUnits="userSpaceOnUse" x1="76.7561" y1="90.6667" x2="76.7561" y2="19.8586" gradientTransform="matrix(1 0 0 -1 0 104)">
		<stop offset="0" style="stop-color:#00EFD1"/>
		<stop offset="1" style="stop-color:#00ACEA"/>
	</linearGradient>
	<path class="st0" d="M88.2,50.9L69.7,31.3c-1.1-1.2-3-1.3-4.2-0.1c-1.2,1.1-1.3,3-0.1,4.2L81.9,53L65.3,70.5   c-1.1,1.2-1.1,3.1,0.1,4.2c0.6,0.5,1.3,0.8,2.1,0.8c0.8,0,1.6-0.3,2.2-0.9L88.2,55C89.3,53.9,89.3,52.1,88.2,50.9z"/>
	
		<linearGradient id="SVGID_2_" gradientUnits="userSpaceOnUse" x1="21.2633" y1="90.6667" x2="21.2633" y2="19.8586" gradientTransform="matrix(1 0 0 -1 0 104)">
		<stop offset="0" style="stop-color:#00EFD1"/>
		<stop offset="1" style="stop-color:#00ACEA"/>
	</linearGradient>
	<path class="st1" d="M32.6,31.2c-1.2-1.1-3.1-1.1-4.2,0.1L9.8,50.9c-1.1,1.2-1.1,3,0,4.1l18.5,19.6c0.6,0.6,1.4,0.9,2.2,0.9   c0.7,0,1.5-0.3,2.1-0.8c1.2-1.1,1.3-3,0.1-4.2L16.1,53l16.6-17.5C33.8,34.3,33.8,32.4,32.6,31.2z"/>
	
		<linearGradient id="SVGID_3_" gradientUnits="userSpaceOnUse" x1="49.0914" y1="90.6667" x2="49.0914" y2="19.8586" gradientTransform="matrix(1 0 0 -1 0 104)">
		<stop offset="0" style="stop-color:#00EFD1"/>
		<stop offset="1" style="stop-color:#00ACEA"/>
	</linearGradient>
	<path class="st2" d="M53.9,21.2c-1.6-0.2-3.2,0.9-3.4,2.5l-8.8,57.6c-0.2,1.6,0.9,3.2,2.5,3.4c0.2,0,0.3,0,0.5,0   c1.5,0,2.7-1.1,3-2.5l8.8-57.6C56.6,23,55.5,21.5,53.9,21.2z"/>
</g>
</svg>
