<svg height="625.33477pt" viewBox="-19 -19 625.33477 625.33477" width="625.33477pt" xmlns="http://www.w3.org/2000/svg"><path d="m24.046875 129.921875c-1.242187-14.089844-.421875-28.277344 2.4375-42.128906 3.824219-17.25 11.335937-31.570313 22.320313-42.550781 15.390624-15.402344 37.035156-23.84375 64.25-25.09375 13.183593-.496094 26.382812.40625 39.371093 2.683593l3.460938-19.675781c-14.410157-2.527344-29.050781-3.523438-43.667969-2.964844-32.429688 1.496094-58.519531 11.898438-77.535156 30.929688-13.734375 13.730468-23.0625 31.363281-27.714844 52.429687-.007812.039063-.019531.082031-.027344.121094-3.273437 15.78125-4.207031 31.953125-2.789062 48.003906zm0 0"/><path d="m67.851562 260.433594c-6.015624-10.976563-11.53125-22.007813-16.398437-32.796875l-18.207031 8.214843c5.078125 11.253907 10.828125 22.757813 17.09375 34.183594zm0 0"/><path d="m9.960938 168.515625c2.503906 10.699219 5.546874 21.269531 9.117187 31.664063l18.902344-6.457032c-3.351563-9.757812-6.214844-19.675781-8.5625-29.714844zm0 0"/><path d="m145.847656 370.429688c-.871094-.996094-1.738281-1.984376-2.601562-2.980469l-15.074219 13.097656c.882813 1.019531 1.769531 2.039063 2.667969 3.058594 5.070312 5.773437 10.347656 11.59375 15.6875 17.304687 2.394531 2.554688 4.8125 5.105469 7.257812 7.644532l14.394532-13.847657c-2.382813-2.472656-4.738282-4.953125-7.0625-7.441406-5.203126-5.558594-10.335938-11.226563-15.269532-16.835937zm0 0"/><path d="m104.039062 351.199219 15.765626-12.257813c-1.449219-1.867187-2.882813-3.734375-4.304688-5.609375-6.082031-8-11.96875-16.121093-17.492188-24.132812l-16.445312 11.335937c5.703125 8.269532 11.769531 16.640625 18.035156 24.878906 1.460938 1.933594 2.945313 3.859376 4.441406 5.785157zm0 0"/><path d="m170.773438 425.65625c18.871093 18.414062 38.726562 35.789062 59.480468 52.042969 28.148438 22.152343 58.191406 41.785156 89.785156 58.660156 18.453126 9.824219 37.578126 18.332031 57.226563 25.464844l-18.242187 5.222656 5.492187 19.203125 51.070313-14.613281c5.300781-1.515625 8.367187-7.046875 6.851562-12.351563l-13.308594-46.515625-19.207031 5.492188 8.460937 29.550781c-23.847656-7.546875-46.9375-17.285156-68.976562-29.09375-30.550781-16.320312-59.601562-35.304688-86.816406-56.726562-20.191406-15.8125-39.511719-32.714844-57.871094-50.625zm0 0"/><path d="m579.949219 428.921875c-4.078125-25.476563-12.503907-52.882813-25.046875-81.457031l-18.289063 8.027344c11.859375 27.019531 19.800781 52.792968 23.609375 76.582031 7.148438 44.664062-.703125 79.894531-22.699218 101.898437-10.894532 10.894532-25.0625 18.363282-42.113282 22.207032-13.785156 3.101562-29.414062 3.839843-46.464844 2.207031-4.203124-.402344-8.539062-.960938-12.890624-1.648438l-3.117188 19.726563c4.742188.75 9.488281 1.355468 14.101562 1.800781 6.496094.621094 12.824219.933594 18.984376.933594 11.355468.070312 22.683593-1.121094 33.777343-3.539063 20.796875-4.691406 38.238281-13.964844 51.84375-27.570312 26.714844-26.714844 36.5-67.917969 28.304688-119.167969zm0 0"/><path d="m531.53125 301.214844-17.351562 9.890625c4.808593 8.4375 9.34375 16.9375 13.480468 25.261719l17.890625-8.878907c-4.300781-8.671875-9.015625-17.507812-14.019531-26.273437zm0 0"/><path d="m485.171875 231.789062-15.867187 12.132813c7.445312 9.738281 14.710937 19.796875 21.605468 29.910156l16.507813-11.246093c-7.101563-10.414063-14.585938-20.777344-22.246094-30.796876zm0 0"/><path d="m435.796875 174.066406-14.441406 13.789063c8.453125 8.855469 16.777343 18.070312 24.738281 27.378906l15.179688-12.980469c-8.199219-9.582031-16.769532-19.066406-25.476563-28.1875zm0 0"/><path d="m188.304688 70.273438 19.53125-4.175782-6.449219-30.167968c18.328125 6.5 36.164062 14.332031 53.355469 23.421874 30.152343 15.921876 58.855468 34.445313 85.773437 55.375 12.691406 9.792969 25.476563 20.421876 37.996094 31.582032 6.941406 6.199218 13.933593 12.691406 20.777343 19.300781 2.964844 2.863281 5.992188 5.84375 9.007813 8.851563l14.121094-14.121094c-3.09375-3.089844-6.203125-6.152344-9.257813-9.097656-7.023437-6.789063-14.207031-13.460938-21.34375-19.839844-12.875-11.472656-26.027344-22.40625-39.0625-32.464844-12.695312-9.871094-25.839844-19.222656-39.324218-28.074219 7.660156-4.320312 15.355468-8.410156 22.890624-12.15625l-8.886718-17.886719c-8.960938 4.445313-18.109375 9.34375-27.1875 14.546876l6.34375 11.070312c-13.851563-8.824219-28.019532-17.070312-42.511719-24.746094-12.910156-6.816406-26.15625-12.953125-39.699219-18.398437l17.597656-3.757813-4.164062-19.535156-51.941406 11.101562c-5.394532 1.152344-8.832032 6.457032-7.679688 11.851563zm0 0"/><path d="m3.105469 430.484375c-2.527344 14.410156-3.523438 29.050781-2.960938 43.667969 1.488281 32.425781 11.890625 58.511718 30.925781 77.539062 13.730469 13.734375 31.375 23.054688 52.429688 27.703125.039062.003907.082031.015625.128906.023438 11.007813 2.285156 22.230469 3.4375 33.480469 3.4375 4.839844 0 9.679687-.210938 14.515625-.636719l-1.753906-19.902344c-14.089844 1.25-28.28125.425782-42.128906-2.441406-17.253907-3.8125-31.570313-11.316406-42.550782-22.304688-15.398437-15.398437-23.84375-37.046874-25.09375-64.253906-.496094-13.1875.398438-26.382812 2.683594-39.378906zm0 0"/><path d="m235.800781 553.121094c11.261719-5.074219 22.761719-10.832032 34.179688-17.089844l-9.59375-17.511719c-10.972657 6.011719-22.007813 11.53125-32.800781 16.394531zm0 0"/><path d="m168.464844 576.410156c10.703125-2.503906 21.273437-5.546875 31.664062-9.117187l-6.457031-18.90625c-9.753906 3.355469-19.671875 6.210937-29.714844 8.566406zm0 0"/><path d="m367.402344 443.117188 13.089844 15.085937c1.023437-.882813 2.042968-1.773437 3.066406-2.671875 5.777344-5.078125 11.601562-10.363281 17.304687-15.6875 2.554688-2.394531 5.105469-4.8125 7.648438-7.261719l-13.851563-14.390625c-2.472656 2.386719-4.953125 4.734375-7.445312 7.0625-5.550782 5.191406-11.214844 10.328125-16.839844 15.265625-.988281.871094-1.976562 1.738281-2.972656 2.597657zm0 0"/><path d="m309.152344 488.351562 11.335937 16.449219c8.269531-5.695312 16.640625-11.765625 24.882813-18.03125 1.929687-1.464843 3.855468-2.945312 5.78125-4.441406l-12.257813-15.773437c-1.863281 1.449218-3.734375 2.886718-5.605469 4.3125-8.003906 6.082031-16.117187 11.964843-24.136718 17.484374zm0 0"/><path d="m432.027344 26.140625c44.660156-7.140625 79.894531.707031 101.898437 22.707031 10.886719 10.886719 18.359375 25.058594 22.207031 42.109375 3.097657 13.789063 3.84375 29.421875 2.203126 46.46875-.398438 4.195313-.949219 8.527344-1.644532 12.886719l19.726563 3.121094c.75-4.757813 1.355469-9.503906 1.800781-14.101563 1.835938-19.152343.960938-36.902343-2.605469-52.761719-4.6875-20.796874-13.960937-38.246093-27.566406-51.851562-26.71875-26.714844-67.933594-36.503906-119.171875-28.300781-25.464844 4.074219-52.878906 12.503906-81.457031 25.042969l8.027343 18.292968c27.019532-11.859375 52.785157-19.804687 76.582032-23.613281zm0 0"/><path d="m215.179688 140.273438-12.984376-15.175782c-9.582031 8.199219-19.0625 16.769532-28.183593 25.464844l13.792969 14.449219c8.859374-8.457031 18.074218-16.78125 27.375-24.738281zm0 0"/><path d="m273.789062 95.460938-11.253906-16.507813c-10.414062 7.105469-20.777344 14.589844-30.792968 22.246094l12.132812 15.867187c9.726562-7.441406 19.792969-14.710937 29.914062-21.605468zm0 0"/><path d="m571.589844 170.789062c-1.515625-5.304687-7.046875-8.371093-12.347656-6.855468l-46.519532 13.3125 5.492188 19.203125 29.554687-8.457031c-7.550781 23.84375-17.292969 46.9375-29.101562 68.976562-16.320313 30.550781-35.304688 59.601562-56.726563 86.816406-15.816406 20.191406-32.714844 39.507813-50.628906 57.867188l14.292969 13.949218c18.414062-18.871093 35.785156-38.726562 52.042969-59.480468 22.152343-28.144532 41.785156-58.191406 58.660156-89.785156 9.820312-18.457032 18.332031-37.574219 25.464844-57.226563l5.222656 18.242187 19.203125-5.492187zm0 0"/><path d="m20.816406 408.402344c.699219 0 1.402344-.074219 2.09375-.226563l47.3125-10.109375-4.175781-19.535156-30.164063 6.453125c6.5-18.332031 14.328126-36.164063 23.421876-53.355469 15.914062-30.15625 34.445312-58.859375 55.371093-85.777344 9.789063-12.6875 20.417969-25.472656 31.582031-37.996093 6.199219-6.945313 12.691407-13.933594 19.300782-20.773438 2.894531-2.996093 5.871094-6.027343 8.855468-9.011719l-14.121093-14.121093c-3.0625 3.0625-6.125 6.171875-9.097657 9.253906-6.792968 7.03125-13.464843 14.210937-19.84375 21.355469-11.484374 12.871094-22.410156 26.027344-32.464843 39.058594-21.632813 27.835937-40.789063 57.5-57.242188 88.675781-6.820312 12.902343-12.960937 26.152343-18.398437 39.699219l-3.761719-17.609376-19.5351562 4.171876 11.1015622 51.941406c.984375 4.609375 5.054688 7.898437 9.765625 7.90625zm0 0"/><path d="m206.941406 213.996094v158.429687c0 8.453125 4.742188 20.355469 28.789063 29.054688 15.570312 5.632812 35.925781 8.738281 57.542969 8.738281h.773437c12.488281 0 24.949219-1.140625 37.230469-3.402344 31.132812-5.972656 49.183594-18.507812 49.183594-34.390625v-158.429687c0-8.457032-5.285157-20.351563-29.335938-29.058594-15.574219-5.632812-36.203125-8.738281-57.847656-8.738281-21.652344 0-41.914063 3.105469-57.488282 8.738281-24.046874 8.703125-28.847656 20.601562-28.847656 29.058594zm120.597656 173.191406c-11.300781 2.09375-22.769531 3.117188-34.257812 3.058594-19.402344 0-37.25-2.683594-50.695312-7.542969-13.152344-4.761719-15.671876-9.535156-15.671876-10.277344v-27.875c2.839844 1.503907 5.789063 2.800781 8.816407 3.875 15.570312 5.636719 35.925781 8.738281 57.582031 8.738281 21.660156 0 42.324219-3.101562 57.894531-8.738281 3.414063-1.234375 5.535157-2.535156 9.28125-3.882812v27.878906c0 1.875-8.085937 9.996094-32.949219 14.765625zm32.949219-67.820312c0 .75-3.003906 5.519531-16.152343 10.28125-13.449219 4.867187-31.65625 7.542968-51.058594 7.542968-19.398438 0-37.246094-2.675781-50.691406-7.542968-13.152344-4.761719-15.671876-9.535157-15.671876-10.28125v-27.507813c2.839844 1.507813 5.789063 2.804687 8.816407 3.878906 15.570312 5.636719 35.925781 8.738281 57.582031 8.738281 21.660156 0 42.324219-3.101562 57.894531-8.738281 3.414063-1.234375 5.535157-2.535156 9.28125-3.878906zm-16.152343-42.410157c-13.449219 4.867188-31.65625 7.542969-51.058594 7.542969-19.398438 0-37.246094-2.675781-50.691406-7.542969-13.152344-4.757812-15.671876-9.53125-15.671876-10.273437v-27.515625c2.84375 1.503906 5.789063 2.800781 8.816407 3.878906 15.574219 5.636719 35.929687 8.738281 57.582031 8.738281s42.320312-3.105468 57.894531-8.738281c3.414063-1.238281 5.535157-2.539063 9.28125-3.878906v27.515625c0 .742187-3.003906 5.515625-16.152343 10.273437zm-102.113282-73.238281c13.449219-4.871094 31.539063-7.546875 50.933594-7.546875 19.390625 0 37.484375 2.675781 50.933594 7.546875 13.144531 4.761719 15.914062 9.53125 15.914062 10.277344 0 .738281-2.769531 5.507812-15.914062 10.269531-13.449219 4.871094-31.542969 7.546875-50.933594 7.546875-19.394531 0-37.484375-2.683594-50.933594-7.546875-13.152344-4.761719-15.917968-9.53125-15.917968-10.269531 0-.746094 2.769531-5.515625 15.921874-10.277344zm0 0"/></svg>