<svg id="Layer_1" enable-background="new 0 0 512 512" height="512" viewBox="0 0 512 512" width="512" xmlns="http://www.w3.org/2000/svg"><g><g><g><path d="m0 31.936h512v448.129h-512z" fill="#fff6cc"/><path d="m470.793 31.936h41.207v448.129h-41.207z" fill="#fff1b5"/><path d="m0 31.936h512v58.892h-512z" fill="#7b7b7f"/><path d="m470.793 31.936h41.207v58.892h-41.207z" fill="#6b6b73"/></g><g><path d="m58.72 140.822h77.648v175.56h-77.648z" fill="#fd0"/><path d="m97.221 140.822h39.147v175.56h-39.147z" fill="#f7d200"/><path d="m58.72 348.428h77.648v76.522h-77.648z" fill="#00cfe9"/><path d="m171.251 140.822h277.984v98.251h-277.984z" fill="#00cfe9"/><path d="m408.028 140.822h41.207v98.252h-41.207z" fill="#00bfd6"/><path d="m171.251 271.906h120.805v153.043h-120.805z" fill="#ff7de9"/><path d="m250.849 271.906h41.207v153.043h-41.207z" fill="#ff5ee4"/><path d="m328.43 271.906h120.805v76.522h-120.805z" fill="#80e1ff"/><path d="m328.43 380.558h120.805v44.392h-120.805z" fill="#fd0"/></g></g><g><path d="m35.461 69.108c10.293 0 10.31-15.453 0-15.453-10.294 0-10.311 15.453 0 15.453z" fill="#fff"/></g><g><path d="m63.104 69.108c10.293 0 10.31-15.453 0-15.453-10.293 0-10.31 15.453 0 15.453z" fill="#fff"/></g><g><path d="m90.747 69.108c10.293 0 10.31-15.453 0-15.453-10.293 0-10.31 15.453 0 15.453z" fill="#fff"/></g></g></svg>