<svg xmlns="http://www.w3.org/2000/svg" width="70.87" height="65.781" viewBox="0 0 70.87 65.781"><defs><style>.a{fill:#002061;fill-rule:evenodd;}</style></defs><g transform="translate(-588.945 -290.289)"><path class="a" d="M651.668,327.447h0a1.387,1.387,0,0,0-1.605-.115l-11.7,8.258a2.685,2.685,0,0,0-1.26-.229h-.573l-8.486-7.112a1.034,1.034,0,0,0-1.606.115l-.573.688a1.108,1.108,0,0,0,.115,1.607l8.372,7.223h0a2.658,2.658,0,0,0,2.409,2.753h.687a2.745,2.745,0,0,0,2.407-2.753.355.355,0,0,0-.114-.229l11.813-8.372a1.067,1.067,0,0,0,.228-1.489Zm-13.3,9.516a1.96,1.96,0,0,0-2.52,0,2.388,2.388,0,0,0-.46,1.261,2.023,2.023,0,0,0,.46,1.15,1.672,1.672,0,0,0,2.52,0,2.024,2.024,0,0,0,.46-1.15,2.389,2.389,0,0,0-.46-1.261Z" transform="translate(-15.533 -10.621)"/><path class="a" d="M659.644,315.037,655.4,326.5a4.3,4.3,0,0,1-2.869,2.753h0a3.882,3.882,0,0,1-3.782-1.031l-9.177-8.257a3.434,3.434,0,0,1-.229-4.817,3.522,3.522,0,0,1,4.7-.457,23.721,23.721,0,1,0-16.512,31.42,4.643,4.643,0,0,1,5.62,3.441,4.6,4.6,0,0,1-3.327,5.5,32.862,32.862,0,1,1,23.28-42.2v-.114a3.5,3.5,0,0,1,2.409-2.176,2.6,2.6,0,0,1,2.064.114,3.454,3.454,0,0,1,2.064,4.357Z"/></g></svg>